<svg xmlns="http://www.w3.org/2000/svg" viewBox="0 0 1000 500" class="world-map">
  <!-- Simplified World Map for SoundEarth -->
  <g id="continents" fill="#1e293b" stroke="#3b82f6" stroke-width="1">
    <!-- North America -->
    <path d="M 200 150 L 250 120 L 300 110 L 350 120 L 380 140 L 370 180 L 340 200 L 300 190 L 250 180 Z"/>
    
    <!-- South America -->
    <path d="M 280 220 L 320 210 L 340 250 L 350 300 L 340 350 L 320 370 L 300 360 L 290 320 L 285 270 Z"/>
    
    <!-- Europe -->
    <path d="M 450 120 L 480 110 L 520 115 L 540 130 L 530 150 L 500 160 L 470 155 Z"/>
    
    <!-- Africa -->
    <path d="M 480 180 L 520 170 L 540 200 L 550 250 L 540 300 L 520 320 L 500 310 L 490 270 L 485 220 Z"/>
    
    <!-- Asia -->
    <path d="M 550 100 L 650 90 L 750 100 L 800 120 L 850 140 L 820 180 L 780 200 L 700 190 L 620 180 L 580 160 Z"/>
    
    <!-- Australia -->
    <path d="M 750 320 L 780 310 L 820 315 L 840 330 L 830 350 L 800 360 L 770 355 L 755 340 Z"/>
    
    <!-- Japan -->
    <path d="M 860 180 L 880 175 L 890 185 L 885 195 L 870 200 L 858 195 Z"/>
  </g>
</svg>